<svg width="26" height="26" viewBox="0 0 26 26" fill="none" xmlns="http://www.w3.org/2000/svg">
<path d="M17.615 1.30005H8.39805C4.48505 1.30005 1.30005 4.47205 1.30005 8.37205V17.628C1.30005 21.528 4.48505 24.7 8.39805 24.7H17.602C21.528 24.7 24.7001 21.528 24.7001 17.628V8.37205C24.7131 4.47205 21.528 1.30005 17.615 1.30005ZM22.75 18.2C22.75 20.709 20.709 22.75 18.2001 22.75H7.80005C5.29105 22.75 3.25005 20.709 3.25005 18.2V7.80005C3.25005 5.29105 5.29105 3.25005 7.80005 3.25005H18.2001C20.709 3.25005 22.75 5.29105 22.75 7.80005V18.2Z" fill="#F0F0F0" fill-opacity="0.5"/>
<path d="M19.3311 8.2549C20.1136 8.2549 20.7481 7.62049 20.7481 6.8379C20.7481 6.05531 20.1136 5.4209 19.3311 5.4209C18.5485 5.4209 17.9141 6.05531 17.9141 6.8379C17.9141 7.62049 18.5485 8.2549 19.3311 8.2549Z" fill="#F0F0F0" fill-opacity="0.5"/>
<path d="M13.039 7.08496C9.72402 7.08496 7.02002 9.76296 7.02002 13.065C7.02002 16.38 9.71102 19.058 13.039 19.058C16.367 19.058 19.058 16.3787 19.058 13.065C19.045 9.76296 16.354 7.08496 13.039 7.08496ZM13.104 16.9C10.946 16.9 9.20402 15.158 9.20402 13.013C9.20402 10.868 10.946 9.12596 13.104 9.12596C15.262 9.12596 17.004 10.868 17.004 13.013C17.004 15.158 15.262 16.9 13.104 16.9Z" fill="#F0F0F0" fill-opacity="0.5"/>
</svg>
