<svg width="150" height="21" viewBox="0 0 150 21" fill="none" xmlns="http://www.w3.org/2000/svg">
<path d="M6.03906 11.9609C6.03906 12.7448 6.11198 13.3874 6.25781 13.8887C6.40365 14.3809 6.64062 14.7728 6.96875 15.0645C7.29688 15.3561 7.7207 15.5566 8.24023 15.666C8.76888 15.7754 9.41602 15.8301 10.1816 15.8301H19.8066V20H9.14258C7.66602 20 6.4082 19.8815 5.36914 19.6445C4.33919 19.3984 3.49609 19.0247 2.83984 18.5234C2.18359 18.013 1.70508 17.3704 1.4043 16.5957C1.11263 15.821 0.966797 14.9004 0.966797 13.834V1.21484H6.03906V11.9609Z" fill="white" fill-opacity="0.4"/>
<path d="M39.8086 20V18.1543C39.1615 18.5098 38.4642 18.8242 37.7168 19.0977C36.9785 19.3711 36.2083 19.6035 35.4062 19.7949C34.6042 19.9863 33.7747 20.1276 32.918 20.2188C32.0703 20.319 31.2135 20.3691 30.3477 20.3691C29.3359 20.3691 28.3561 20.2734 27.4082 20.082C26.4694 19.8906 25.6354 19.5807 24.9062 19.1523C24.1771 18.724 23.5892 18.1634 23.1426 17.4707C22.7051 16.778 22.4863 15.9303 22.4863 14.9277C22.4863 13.6608 22.8327 12.6081 23.5254 11.7695C24.2181 10.9219 25.2754 10.2292 26.6973 9.69141C28.1191 9.15365 29.9147 8.73893 32.084 8.44727C34.2624 8.1556 36.8372 7.92773 39.8086 7.76367V7.36719C39.8086 7.05729 39.7266 6.75195 39.5625 6.45117C39.3984 6.14128 39.0977 5.8724 38.6602 5.64453C38.2318 5.40755 37.6393 5.21615 36.8828 5.07031C36.1354 4.92448 35.1784 4.85156 34.0117 4.85156C33.0911 4.85156 32.1797 4.90169 31.2773 5.00195C30.3841 5.0931 29.5182 5.2207 28.6797 5.38477C27.8503 5.54883 27.0618 5.74023 26.3145 5.95898C25.5671 6.17773 24.888 6.4056 24.2773 6.64258V2.13086C24.9154 1.9668 25.6309 1.80729 26.4238 1.65234C27.2168 1.4974 28.0417 1.36523 28.8984 1.25586C29.7552 1.13737 30.6211 1.04622 31.4961 0.982422C32.3711 0.909505 33.2096 0.873047 34.0117 0.873047C35.5885 0.873047 37.0423 1.00521 38.373 1.26953C39.7038 1.52474 40.8477 1.92578 41.8047 2.47266C42.7708 3.01953 43.5228 3.71224 44.0605 4.55078C44.6074 5.38932 44.8809 6.38737 44.8809 7.54492V20H39.8086ZM39.8086 11.4277C37.8581 11.5007 36.1992 11.6055 34.832 11.7422C33.474 11.8789 32.3438 12.0384 31.4414 12.2207C30.5391 12.403 29.8281 12.599 29.3086 12.8086C28.7982 13.0182 28.4154 13.2324 28.1602 13.4512C27.9049 13.6699 27.7454 13.8887 27.6816 14.1074C27.627 14.3262 27.5996 14.5267 27.5996 14.709C27.5996 14.9277 27.6589 15.1419 27.7773 15.3516C27.8958 15.5521 28.1009 15.7298 28.3926 15.8848C28.6934 16.0397 29.0898 16.1628 29.582 16.2539C30.0742 16.3451 30.694 16.3906 31.4414 16.3906C32.2708 16.3906 33.082 16.3268 33.875 16.1992C34.668 16.0716 35.4199 15.8984 36.1309 15.6797C36.8418 15.4518 37.5072 15.1875 38.127 14.8867C38.7559 14.5768 39.3164 14.2487 39.8086 13.9023V11.4277Z" fill="white" fill-opacity="0.4"/>
<path d="M68.5742 20V9.47266C68.5742 8.77083 68.515 8.13737 68.3965 7.57227C68.278 6.99805 68.0547 6.51042 67.7266 6.10938C67.4076 5.69922 66.9564 5.38477 66.373 5.16602C65.7988 4.93815 65.056 4.82422 64.1445 4.82422C63.4518 4.82422 62.7227 4.91992 61.957 5.11133C61.2005 5.29362 60.4486 5.53971 59.7012 5.84961C58.9538 6.15951 58.2383 6.51953 57.5547 6.92969C56.8802 7.33984 56.2786 7.76823 55.75 8.21484V20H50.6777V1.21484H55.75V3.78516C56.388 3.42057 57.0671 3.06055 57.7871 2.70508C58.5072 2.34049 59.2728 2.01237 60.084 1.7207C60.8952 1.42904 61.7565 1.19206 62.668 1.00977C63.5794 0.827474 64.541 0.736328 65.5527 0.736328C66.8197 0.736328 67.9499 0.891276 68.9434 1.20117C69.946 1.50195 70.7936 1.9349 71.4863 2.5C72.179 3.05599 72.7077 3.73503 73.0723 4.53711C73.446 5.33008 73.6328 6.21875 73.6328 7.20312V20H68.5742Z" fill="white" fill-opacity="0.4"/>
<path d="M100.389 19.0703C98.8483 19.5807 97.3079 19.9453 95.7676 20.1641C94.2363 20.3919 92.6686 20.5059 91.0645 20.5059C89.0137 20.5059 87.1862 20.2871 85.582 19.8496C83.987 19.403 82.6426 18.7604 81.5488 17.9219C80.4551 17.0833 79.6211 16.0579 79.0469 14.8457C78.4727 13.6335 78.1855 12.2617 78.1855 10.7305C78.1855 9.30859 78.4727 7.99154 79.0469 6.7793C79.6302 5.55794 80.4505 4.50065 81.5078 3.60742C82.5742 2.70508 83.8594 2.00326 85.3633 1.50195C86.8672 0.991536 88.5443 0.736328 90.3945 0.736328C92.099 0.736328 93.6576 0.96875 95.0703 1.43359C96.4922 1.88932 97.709 2.56836 98.7207 3.4707C99.7415 4.37305 100.53 5.48503 101.086 6.80664C101.651 8.12826 101.934 9.65039 101.934 11.373V12.6309H83.4219C83.5859 13.2233 83.8548 13.7656 84.2285 14.2578C84.6113 14.75 85.1263 15.1693 85.7734 15.5156C86.4206 15.862 87.2135 16.1309 88.1523 16.3223C89.1003 16.5137 90.2305 16.6094 91.543 16.6094C92.4727 16.6094 93.3841 16.5547 94.2773 16.4453C95.1706 16.3268 96.0046 16.1764 96.7793 15.9941C97.554 15.8027 98.2513 15.5931 98.8711 15.3652C99.5 15.1374 100.006 14.9095 100.389 14.6816V19.0703ZM96.8887 8.91211C96.8431 8.44727 96.7018 7.96875 96.4648 7.47656C96.237 6.97526 95.8724 6.52409 95.3711 6.12305C94.8698 5.72201 94.2135 5.39388 93.4023 5.13867C92.5911 4.87435 91.5794 4.74219 90.3672 4.74219C89.2279 4.74219 88.2435 4.88346 87.4141 5.16602C86.5846 5.44857 85.8874 5.79948 85.3223 6.21875C84.7663 6.63802 84.3333 7.08919 84.0234 7.57227C83.7135 8.05534 83.513 8.50195 83.4219 8.91211H96.8887Z" fill="white" fill-opacity="0.4"/>
<path d="M116.795 5.30273V20H111.723V5.30273H103.752V1.21484H124.779V5.30273H116.795Z" fill="white" fill-opacity="0.4"/>
<path d="M144.07 20V18.1543C143.423 18.5098 142.726 18.8242 141.979 19.0977C141.24 19.3711 140.47 19.6035 139.668 19.7949C138.866 19.9863 138.036 20.1276 137.18 20.2188C136.332 20.319 135.475 20.3691 134.609 20.3691C133.598 20.3691 132.618 20.2734 131.67 20.082C130.731 19.8906 129.897 19.5807 129.168 19.1523C128.439 18.724 127.851 18.1634 127.404 17.4707C126.967 16.778 126.748 15.9303 126.748 14.9277C126.748 13.6608 127.094 12.6081 127.787 11.7695C128.48 10.9219 129.537 10.2292 130.959 9.69141C132.381 9.15365 134.176 8.73893 136.346 8.44727C138.524 8.1556 141.099 7.92773 144.07 7.76367V7.36719C144.07 7.05729 143.988 6.75195 143.824 6.45117C143.66 6.14128 143.359 5.8724 142.922 5.64453C142.493 5.40755 141.901 5.21615 141.145 5.07031C140.397 4.92448 139.44 4.85156 138.273 4.85156C137.353 4.85156 136.441 4.90169 135.539 5.00195C134.646 5.0931 133.78 5.2207 132.941 5.38477C132.112 5.54883 131.324 5.74023 130.576 5.95898C129.829 6.17773 129.15 6.4056 128.539 6.64258V2.13086C129.177 1.9668 129.893 1.80729 130.686 1.65234C131.479 1.4974 132.303 1.36523 133.16 1.25586C134.017 1.13737 134.883 1.04622 135.758 0.982422C136.633 0.909505 137.471 0.873047 138.273 0.873047C139.85 0.873047 141.304 1.00521 142.635 1.26953C143.965 1.52474 145.109 1.92578 146.066 2.47266C147.033 3.01953 147.785 3.71224 148.322 4.55078C148.869 5.38932 149.143 6.38737 149.143 7.54492V20H144.07ZM144.07 11.4277C142.12 11.5007 140.461 11.6055 139.094 11.7422C137.736 11.8789 136.605 12.0384 135.703 12.2207C134.801 12.403 134.09 12.599 133.57 12.8086C133.06 13.0182 132.677 13.2324 132.422 13.4512C132.167 13.6699 132.007 13.8887 131.943 14.1074C131.889 14.3262 131.861 14.5267 131.861 14.709C131.861 14.9277 131.921 15.1419 132.039 15.3516C132.158 15.5521 132.363 15.7298 132.654 15.8848C132.955 16.0397 133.352 16.1628 133.844 16.2539C134.336 16.3451 134.956 16.3906 135.703 16.3906C136.533 16.3906 137.344 16.3268 138.137 16.1992C138.93 16.0716 139.682 15.8984 140.393 15.6797C141.104 15.4518 141.769 15.1875 142.389 14.8867C143.018 14.5768 143.578 14.2487 144.07 13.9023V11.4277Z" fill="white" fill-opacity="0.4"/>
</svg>
