<svg width="26" height="26" viewBox="0 0 26 26" fill="none" xmlns="http://www.w3.org/2000/svg">
<path d="M7.50098 23.2571V9.3211H2.87298V23.2571H7.50098ZM5.18698 7.4231C6.79898 7.4231 7.81298 6.3571 7.81298 5.0181C7.78698 3.6401 6.81198 2.6001 5.22598 2.6001C3.63998 2.6001 2.59998 3.6401 2.59998 5.0051C2.59998 6.3441 3.60098 7.4101 5.16098 7.4101H5.18698V7.4231Z" fill="#F0F0F0" fill-opacity="0.5"/>
<path d="M10.075 23.2571H14.703V15.4701C14.703 15.0541 14.729 14.6381 14.859 14.3391C15.197 13.5071 15.951 12.6491 17.238 12.6491C18.915 12.6491 19.578 13.9231 19.578 15.7951V23.2571H24.206V15.2621C24.206 10.9851 21.918 8.99609 18.876 8.99609C16.38 8.99609 15.275 10.3871 14.664 11.3491H14.69V9.32109H10.075C10.127 10.6211 10.075 23.2571 10.075 23.2571Z" fill="#F0F0F0" fill-opacity="0.5"/>
</svg>
