<svg width="26" height="26" viewBox="0 0 26 26" fill="none" xmlns="http://www.w3.org/2000/svg">
<path d="M24.7 6.1619C23.8407 6.5376 22.9138 6.7976 21.9453 6.9159C22.9372 6.3179 23.6951 5.3806 24.0539 4.2639C23.127 4.8099 22.1013 5.2116 21.0067 5.4209C20.1305 4.4849 18.8838 3.8999 17.5032 3.8999C14.8499 3.8999 12.7023 6.0579 12.7023 8.7099C12.7023 9.0869 12.7452 9.4496 12.8284 9.8006C8.83355 9.5939 5.29885 7.6946 2.93025 4.7826C2.51685 5.4846 2.28025 6.3179 2.28025 7.2006C2.28025 8.8659 3.12655 10.3349 4.41615 11.1929C3.62705 11.1656 2.88605 10.9576 2.23995 10.5936V10.6456C2.23995 12.9713 3.89615 14.9213 6.09185 15.3659C5.68885 15.4686 5.26375 15.5206 4.82695 15.5206C4.51755 15.5206 4.21855 15.4946 3.92345 15.4439C4.53705 17.3536 6.30765 18.7446 8.40975 18.7836C6.76655 20.0576 4.69565 20.8246 2.44665 20.8246C2.05795 20.8246 1.67705 20.8116 1.30005 20.7596C3.42555 22.1246 5.94885 22.9176 8.66065 22.9176C17.4902 22.9176 22.321 15.5999 22.321 9.2676C22.321 9.0596 22.3158 8.8516 22.3041 8.6436C23.2427 7.9676 24.0552 7.1213 24.7 6.1619Z" fill="#F0F0F0" fill-opacity="0.5"/>
</svg>
